<?xml version="1.0" standalone="no"?>
<!DOCTYPE svg PUBLIC "-//W3C//DTD SVG 20010904//EN"
 "http://www.w3.org/TR/2001/REC-SVG-20010904/DTD/svg10.dtd">
<svg version="1.0" xmlns="http://www.w3.org/2000/svg"
 width="512.000000pt" height="512.000000pt" viewBox="0 0 512.000000 512.000000"
 preserveAspectRatio="xMidYMid meet">
<metadata>
Created by potrace 1.11, written by Peter Selinger 2001-2013
</metadata>
<g transform="translate(0.000000,512.000000) scale(0.100000,-0.100000)"
fill="#000000" stroke="none">
<path d="M360 5113 c0 -7 -7 -10 -17 -6 -12 5 -14 3 -8 -8 7 -11 6 -12 -6 -2
-9 7 -20 8 -29 3 -8 -5 -18 -6 -22 -4 -18 11 -48 13 -42 2 5 -7 2 -9 -9 -5
-11 4 -15 1 -12 -14 2 -10 0 -19 -5 -19 -5 0 -7 -6 -4 -14 3 -8 0 -17 -5 -21
-6 -3 -9 -11 -6 -16 4 -5 1 -9 -5 -9 -6 0 -9 -4 -5 -9 6 -11 -15 -62 -30 -73
-6 -5 -5 -8 4 -8 11 0 11 -3 1 -15 -6 -8 -9 -19 -5 -25 3 -5 2 -10 -3 -10 -9
0 -26 -55 -23 -72 0 -5 -4 -8 -10 -8 -5 0 -8 -4 -5 -9 4 -5 1 -22 -5 -38 -6
-15 -10 -29 -10 -31 1 -1 -5 -17 -13 -36 -8 -19 -12 -37 -8 -40 3 -3 0 -6 -7
-6 -7 0 -9 -4 -6 -10 3 -5 0 -10 -7 -10 -9 0 -9 -3 2 -10 8 -5 10 -10 5 -10
-6 0 -11 -10 -12 -22 -1 -11 -7 -24 -13 -28 -6 -4 -10 -11 -9 -16 1 -5 0 -12
-1 -16 -1 -5 -4 -12 -5 -18 -1 -5 -4 -12 -5 -15 -8 -15 -5 -32 8 -47 8 -9 11
-21 8 -26 -3 -6 1 -13 10 -16 9 -3 14 -13 11 -20 -3 -8 1 -17 9 -20 9 -3 12
-10 9 -16 -3 -5 -1 -10 5 -10 6 0 8 -4 5 -10 -3 -5 -1 -10 5 -10 6 0 8 -4 5
-10 -3 -5 -1 -10 4 -10 6 0 11 -8 11 -19 0 -10 7 -24 15 -31 8 -7 12 -16 9
-21 -3 -5 0 -9 5 -9 6 0 11 -9 11 -19 0 -10 7 -21 15 -25 8 -3 12 -12 9 -21
-3 -8 -1 -15 6 -15 6 0 9 -4 5 -9 -3 -6 3 -14 12 -20 14 -8 15 -11 3 -11 -12
0 -11 -3 3 -11 9 -6 15 -14 12 -20 -4 -5 -1 -9 4 -9 6 0 11 -9 11 -20 0 -11 5
-20 10 -20 6 0 10 -7 10 -15 0 -8 4 -15 10 -15 5 0 7 -7 4 -15 -4 -8 -1 -15 6
-15 6 0 8 -4 5 -10 -3 -5 -1 -10 5 -10 7 0 9 -7 6 -16 -3 -8 -2 -13 2 -10 5 3
17 -15 27 -39 10 -25 22 -42 28 -38 7 4 8 -1 3 -12 -4 -10 -2 -21 3 -24 5 -4
11 -13 13 -21 2 -8 10 -21 18 -28 8 -8 9 -11 3 -7 -9 4 -11 1 -7 -9 3 -9 10
-16 14 -16 8 0 34 -59 31 -72 0 -5 4 -8 9 -8 6 0 10 -6 10 -14 0 -7 6 -19 14
-26 8 -6 12 -18 9 -26 -3 -8 0 -14 6 -14 6 0 11 -5 11 -11 0 -6 10 -25 22 -42
12 -17 16 -27 9 -23 -10 7 -11 4 -2 -12 6 -12 16 -24 21 -27 6 -4 8 -11 5 -16
-4 -5 -2 -9 3 -9 8 0 55 -93 52 -105 0 -3 6 -13 15 -21 8 -9 13 -19 10 -24 -3
-5 -1 -10 3 -12 12 -4 72 -125 72 -143 0 -8 5 -15 10 -15 6 0 10 -9 10 -21 0
-11 5 -17 10 -14 6 3 10 0 10 -7 0 -22 47 -107 55 -100 4 4 6 0 4 -8 -2 -8 12
-44 31 -80 19 -36 33 -68 32 -72 -1 -5 2 -8 8 -8 6 0 9 -3 8 -7 -2 -9 61 -136
72 -143 4 -3 6 -13 4 -22 -1 -10 2 -18 7 -18 8 0 6 -48 -1 -57 -2 -2 -4 -7 -5
-13 -1 -5 -4 -13 -5 -17 -1 -5 -2 -11 -1 -15 0 -5 -4 -8 -11 -8 -6 0 -8 -3 -5
-7 4 -3 1 -13 -6 -21 -10 -13 -9 -14 2 -8 8 6 7 0 -4 -18 -10 -14 -14 -26 -10
-26 4 0 2 -7 -5 -15 -6 -8 -8 -20 -4 -26 5 -9 2 -10 -9 -6 -14 5 -15 2 -7 -18
6 -16 6 -25 0 -25 -6 0 -10 -9 -10 -20 0 -11 -4 -20 -9 -20 -5 0 -8 -11 -7
-24 2 -14 -3 -27 -10 -30 -7 -3 -10 -13 -7 -25 3 -12 1 -21 -5 -21 -5 0 -10
-6 -9 -12 1 -45 -4 -69 -15 -62 -7 4 -8 3 -4 -4 4 -6 2 -21 -5 -33 -7 -14 -7
-19 0 -15 5 4 4 -6 -4 -20 -8 -15 -12 -31 -9 -36 3 -5 1 -15 -6 -23 -6 -7 -12
-32 -13 -54 -1 -23 -5 -41 -9 -41 -4 0 -7 -8 -7 -17 -1 -37 -7 -72 -14 -79 -4
-4 -2 -13 5 -21 6 -8 7 -13 2 -12 -21 4 -28 -2 -14 -11 9 -6 11 -10 3 -10 -7
0 -10 -7 -7 -15 4 -8 1 -15 -6 -15 -10 0 -10 -3 -1 -14 9 -10 9 -16 1 -21 -8
-5 -7 -11 2 -23 11 -13 11 -14 -1 -7 -11 6 -13 3 -9 -13 4 -12 3 -22 -2 -22
-4 0 -6 -12 -4 -27 1 -15 -2 -36 -8 -46 -8 -15 -7 -18 3 -12 9 6 11 3 6 -9 -4
-10 -7 -20 -7 -22 0 -3 -4 -2 -10 1 -6 3 -7 -1 -4 -9 3 -9 10 -13 15 -10 5 3
6 -2 3 -10 -3 -9 -11 -16 -16 -16 -7 0 -6 -5 1 -13 6 -8 9 -16 6 -19 -9 -8
-10 -162 -2 -175 5 -7 4 -13 0 -13 -5 0 -9 -9 -9 -20 0 -11 3 -20 7 -20 4 0 5
-9 2 -20 -3 -11 0 -27 7 -35 11 -13 10 -14 -6 -9 -18 7 -18 7 -2 -12 14 -16
15 -23 6 -32 -7 -7 -8 -12 -2 -12 6 0 11 -17 12 -38 1 -20 2 -45 2 -55 1 -9 7
-17 13 -17 7 0 6 -4 -3 -10 -8 -5 -10 -10 -5 -10 10 0 14 -15 16 -62 0 -10 4
-20 10 -23 5 -4 9 -17 9 -30 0 -13 5 -27 10 -30 6 -4 8 -15 5 -26 -4 -12 -1
-21 9 -25 9 -3 14 -9 11 -13 -7 -12 21 -82 30 -74 4 5 6 1 3 -7 -3 -8 1 -21 9
-28 7 -8 11 -17 8 -22 -3 -4 2 -11 11 -14 8 -3 13 -10 10 -15 -3 -5 1 -14 9
-21 8 -7 15 -18 15 -25 0 -7 7 -16 16 -19 9 -4 14 -13 10 -21 -3 -8 -1 -15 5
-15 14 0 39 -26 32 -34 -3 -3 2 -8 11 -12 9 -3 16 -13 16 -21 0 -8 4 -11 10
-8 5 3 10 -1 10 -10 0 -9 4 -13 10 -10 5 3 10 -2 10 -11 0 -10 3 -14 7 -11 3
4 13 -2 20 -13 8 -11 19 -17 25 -14 6 4 8 3 5 -2 -3 -6 -2 -16 4 -24 5 -9 9
-10 9 -3 0 6 13 -2 29 -18 16 -16 37 -29 46 -29 9 0 13 -5 10 -10 -3 -6 1 -10
9 -10 9 0 16 -5 16 -11 0 -5 4 -8 9 -4 5 3 16 -2 24 -10 9 -8 23 -15 31 -15 9
0 16 -4 16 -10 0 -5 7 -10 15 -10 8 0 15 -5 15 -11 0 -5 4 -8 9 -5 8 5 47 -10
95 -35 11 -7 16 -7 12 -1 -3 6 5 5 19 -1 14 -7 25 -16 25 -21 0 -5 6 -3 14 3
10 9 15 8 19 -2 3 -9 16 -13 31 -12 14 2 26 -2 26 -8 0 -5 3 -7 6 -4 4 3 16 2
27 -4 15 -8 18 -8 12 1 -6 9 -2 9 14 1 11 -7 21 -9 21 -7 0 3 12 1 26 -4 18
-7 23 -7 18 1 -4 8 0 8 15 0 11 -7 21 -9 21 -5 0 3 8 0 17 -7 11 -10 14 -10 9
-1 -4 6 -3 12 3 12 5 0 13 -5 16 -10 5 -8 12 -7 23 2 12 10 14 10 8 1 -4 -7
-2 -13 3 -13 6 0 11 5 11 11 0 8 4 8 13 0 10 -8 17 -7 27 2 10 9 11 9 6 0 -4
-7 -2 -13 3 -13 6 0 11 5 11 10 0 7 6 7 20 0 15 -8 20 -8 20 2 0 9 3 9 10 -2
7 -11 10 -11 10 -2 0 7 5 10 11 7 5 -4 20 1 32 12 16 13 18 14 9 1 -11 -13
-11 -18 0 -24 7 -4 10 -4 6 1 -4 4 -3 13 2 20 7 8 3 18 -10 33 -11 12 -20 26
-20 32 0 5 -5 10 -11 10 -5 0 -8 4 -4 9 3 5 -2 16 -11 25 -8 9 -16 25 -17 35
0 11 -5 17 -9 15 -4 -3 -8 2 -8 10 0 9 -4 16 -10 16 -5 0 -10 9 -10 20 0 11
-5 20 -11 20 -6 0 -9 7 -5 15 3 8 0 18 -7 22 -17 11 -48 69 -40 77 3 3 1 6 -6
6 -7 0 -10 4 -7 9 4 5 2 11 -3 13 -5 1 -11 10 -13 18 -2 8 -10 20 -18 27 -13
11 -13 12 0 13 12 0 11 3 -2 11 -10 5 -18 17 -18 26 0 9 -8 22 -17 30 -10 8
-13 12 -6 9 6 -3 0 18 -15 46 -14 29 -27 62 -29 73 -2 11 -8 22 -13 23 -6 2
-8 8 -4 13 3 5 0 9 -6 9 -6 0 -9 4 -5 10 3 5 1 17 -4 27 -12 23 -23 53 -28 77
-2 11 -9 26 -16 35 -10 12 -9 13 3 6 12 -7 12 -5 -1 11 -9 10 -14 25 -11 33 2
7 -1 16 -7 20 -6 4 -12 26 -13 49 -1 27 -5 39 -12 35 -6 -4 -4 2 4 12 9 11 10
16 3 11 -13 -7 -17 15 -16 86 1 16 -3 28 -7 28 -4 0 -11 7 -14 16 -3 8 -2 13
3 10 5 -3 11 1 15 9 3 8 0 15 -6 15 -7 0 -6 5 2 15 7 9 8 15 2 15 -11 0 -10
25 1 36 4 4 2 13 -4 20 -7 8 -7 14 1 19 8 5 7 11 -2 23 -7 9 -8 13 -2 9 7 -4
11 7 12 30 1 19 7 42 14 51 11 13 11 14 -2 7 -13 -8 -13 -6 -1 8 7 9 11 24 7
32 -3 9 -2 13 4 10 6 -3 11 -1 11 4 2 12 5 26 9 39 1 4 2 10 1 14 0 5 4 8 10
8 5 0 7 5 4 10 -3 6 -1 10 5 10 6 0 9 4 6 8 -7 12 29 64 38 55 4 -4 4 0 1 8
-3 9 6 28 25 47 16 18 30 34 30 37 -1 14 34 55 50 60 11 4 17 12 13 21 -3 7 0
14 5 14 6 0 34 23 62 50 27 28 50 48 50 45 0 -3 8 3 18 12 11 10 17 22 14 27
-3 5 0 6 6 2 6 -3 13 -2 17 4 4 6 11 7 17 4 6 -4 8 -2 5 3 -6 10 16 25 29 20
3 -1 10 6 15 16 6 9 17 17 24 17 8 0 15 5 15 11 0 5 4 8 9 5 5 -3 25 1 44 9
19 8 37 11 41 8 3 -4 6 -2 6 4 0 6 9 9 22 5 11 -3 19 -1 16 4 -4 5 17 10 45
12 28 1 55 8 59 15 6 9 8 9 8 -1 0 -8 5 -10 12 -6 20 13 59 14 52 2 -5 -7 -2
-8 7 -2 21 13 83 13 91 0 6 -8 8 -7 8 2 0 6 7 12 15 12 8 0 15 -6 15 -12 0
-10 2 -10 8 -1 8 12 27 12 67 -2 16 -6 17 -5 5 4 -9 7 -10 11 -3 11 6 0 15 -5
18 -10 5 -8 11 -7 21 1 9 7 14 7 14 1 0 -5 13 -9 30 -8 16 1 32 -3 34 -8 3 -6
5 -5 5 2 1 9 6 10 19 4 9 -5 25 -8 34 -7 10 2 20 -1 24 -6 3 -5 14 -4 26 2 15
8 18 8 14 0 -4 -7 2 -11 16 -11 54 0 88 -6 88 -14 0 -5 6 -3 14 3 9 8 15 8 18
2 1 -6 19 -11 38 -13 19 -1 38 -6 42 -12 4 -6 13 -4 24 5 11 9 15 9 10 2 -5
-9 1 -13 18 -14 25 -1 36 -3 54 -9 4 -1 11 -2 16 -1 5 1 13 -4 17 -11 7 -10 9
-10 9 0 0 9 5 10 19 3 10 -6 21 -7 25 -4 3 3 6 1 6 -6 0 -7 6 -11 14 -8 8 3
17 3 21 -1 4 -4 16 -7 28 -8 12 -1 30 -4 39 -8 9 -4 22 -5 28 -1 5 3 10 1 10
-5 0 -6 8 -10 18 -8 11 2 27 -4 37 -12 17 -13 18 -13 10 0 -7 12 -6 13 7 3 8
-7 27 -14 42 -15 15 -1 32 -8 37 -15 7 -8 18 -9 35 -3 19 8 26 6 30 -5 4 -8
10 -13 14 -10 5 3 11 1 15 -4 3 -6 12 -8 20 -4 8 3 15 0 15 -6 0 -6 5 -11 11
-11 5 0 7 4 4 10 -3 6 1 7 9 4 9 -3 16 -9 16 -13 0 -4 6 -8 13 -9 25 -3 62
-10 65 -12 1 -2 11 -3 21 -4 11 0 23 -5 28 -10 5 -5 2 -6 -6 -1 -9 5 -12 4 -8
-2 4 -6 20 -9 36 -8 18 1 29 -2 28 -8 -1 -6 10 -12 24 -12 14 0 34 -7 44 -15
17 -13 18 -13 10 0 -8 13 -6 13 8 2 9 -8 21 -11 27 -7 5 3 13 0 16 -8 3 -8 16
-13 30 -11 14 1 27 -3 30 -9 2 -7 18 -13 35 -13 17 -1 35 -7 39 -13 4 -7 11
-12 16 -11 5 0 18 -2 29 -6 38 -12 50 -15 63 -16 6 -1 12 -5 12 -10 0 -4 11
-8 24 -8 13 0 26 -4 28 -9 2 -6 15 -12 31 -15 15 -3 41 -11 57 -20 20 -9 28
-11 24 -3 -3 7 0 5 8 -4 7 -9 19 -14 26 -12 6 3 12 0 12 -7 0 -6 5 -8 10 -5 6
4 17 1 25 -5 8 -7 15 -9 15 -4 0 5 5 2 10 -6 9 -13 10 -13 10 0 1 12 3 11 11
-3 6 -9 14 -15 20 -12 5 4 9 2 9 -3 0 -5 6 -9 13 -9 24 -1 42 -8 55 -23 12
-13 13 -13 6 0 -7 13 -5 13 9 2 9 -8 20 -11 26 -8 5 3 11 -1 14 -9 4 -8 15
-12 27 -10 15 3 20 0 17 -9 -4 -10 3 -13 24 -11 16 1 26 -1 23 -6 -5 -8 17
-14 39 -10 4 0 7 -3 7 -8 0 -5 13 -12 30 -16 16 -4 35 -14 41 -23 9 -15 10
-14 6 5 -4 17 -1 20 12 15 13 -5 14 -3 4 9 -10 12 -10 18 0 29 9 10 9 11 0 6
-7 -4 -13 -3 -13 3 0 5 6 12 12 14 10 4 10 6 1 6 -9 1 -13 18 -13 52 0 37 -3
48 -13 43 -8 -5 -8 -2 2 9 11 14 11 17 0 17 -11 0 -11 2 1 10 8 5 10 10 5 10
-9 0 -16 37 -17 90 -1 8 -5 21 -10 27 -6 7 -8 19 -5 28 4 8 2 17 -3 20 -5 3
-7 12 -3 20 3 8 1 15 -5 15 -5 0 -9 15 -8 34 1 19 -3 34 -7 33 -8 -2 -13 15
-21 76 -1 10 -9 23 -17 28 -12 7 -12 9 1 9 13 1 13 2 0 13 -15 12 -22 30 -23
55 0 6 -5 12 -10 12 -6 0 -7 3 -4 7 4 3 0 14 -9 24 -9 10 -14 25 -10 34 3 9 2
13 -4 10 -6 -3 -10 -3 -11 2 -3 30 -9 48 -19 51 -5 2 -8 8 -4 13 3 5 -2 12
-10 15 -9 3 -13 10 -10 15 3 5 0 9 -7 9 -7 0 -10 3 -6 6 3 4 -5 21 -18 39 -14
17 -22 35 -17 40 4 5 2 5 -5 2 -7 -4 -17 5 -25 23 -7 16 -19 30 -27 30 -7 0
-11 6 -8 14 4 9 -2 17 -14 21 -10 4 -19 13 -19 21 0 8 -4 12 -10 9 -6 -3 -10
1 -10 9 0 8 -9 18 -20 21 -11 3 -20 15 -20 26 0 10 -5 19 -11 19 -5 0 -7 -6
-4 -13 4 -6 -6 3 -23 21 -16 17 -34 32 -40 32 -5 0 -13 7 -16 16 -3 8 -10 12
-16 9 -5 -3 -10 -1 -10 4 0 6 -6 11 -14 11 -8 0 -17 7 -20 16 -3 8 -10 12 -16
9 -5 -3 -10 -1 -10 4 0 6 -7 11 -15 11 -7 0 -18 6 -22 14 -4 8 -10 15 -13 14
-18 0 -60 16 -60 23 0 5 -9 9 -20 9 -11 0 -20 4 -20 10 0 5 -7 7 -15 4 -8 -4
-15 -2 -15 4 0 6 -8 9 -17 8 -10 -2 -24 4 -31 13 -10 12 -12 12 -6 1 6 -12 5
-13 -7 -4 -8 7 -27 12 -43 12 -16 0 -33 7 -38 16 -7 12 -14 14 -26 7 -12 -6
-24 -5 -37 5 -23 17 -39 18 -29 2 5 -10 4 -10 -6 -1 -7 6 -19 9 -26 6 -8 -3
-14 -1 -14 4 0 5 -27 8 -61 8 -33 0 -66 3 -72 7 -6 4 -20 2 -31 -4 -19 -10
-20 -10 -7 6 13 15 12 16 -13 7 -19 -8 -26 -7 -26 2 0 7 -3 8 -8 2 -8 -12 -32
-13 -49 -2 -6 4 -18 0 -26 -8 -18 -17 -31 -20 -21 -4 4 8 0 9 -15 4 -11 -3
-39 -6 -61 -7 -22 0 -43 -4 -45 -9 -3 -4 -17 -4 -30 1 -17 7 -25 6 -25 -1 0
-8 -4 -8 -13 0 -8 6 -17 7 -23 2 -5 -5 -24 -12 -43 -16 -26 -6 -32 -4 -27 6 5
9 2 8 -6 -1 -7 -9 -23 -15 -35 -14 -13 1 -23 -3 -23 -7 0 -5 -5 -9 -11 -9 -5
0 -7 6 -3 13 6 9 4 9 -7 1 -23 -18 -62 -24 -76 -12 -10 8 -12 7 -7 -5 4 -11 0
-16 -13 -16 -32 1 -73 -7 -81 -16 -4 -4 -1 -5 7 0 9 5 12 4 8 -2 -4 -6 -18 -8
-32 -5 -15 2 -33 -2 -43 -11 -27 -24 -47 -6 -23 20 11 11 17 24 14 27 -4 3 1
6 10 6 9 0 16 3 15 8 -2 4 11 22 27 40 17 19 30 39 30 45 0 7 5 12 12 12 6 0
20 10 31 22 10 13 22 19 26 15 4 -4 6 -2 4 3 -3 11 46 65 59 65 5 0 17 11 27
25 10 13 22 22 27 19 5 -3 9 0 9 6 0 6 5 8 10 5 9 -6 14 8 11 28 -1 5 3 6 9 2
5 -3 20 3 32 14 12 12 27 21 34 21 6 0 15 7 18 16 3 8 10 12 16 9 5 -3 10 -1
10 5 0 6 4 9 9 5 6 -3 14 2 19 10 4 9 18 17 29 18 12 0 20 4 17 8 -4 8 57 35
69 31 5 -1 6 1 3 6 -3 5 12 15 34 22 23 8 37 17 33 24 -3 6 -3 8 2 4 4 -4 15
-2 23 5 13 10 14 9 7 -3 -7 -13 -6 -13 11 0 41 32 61 39 73 27 9 -9 11 -8 6 4
-4 10 0 19 10 23 10 3 14 2 9 -5 -4 -8 0 -8 14 0 12 6 24 16 28 22 4 8 9 7 15
-2 6 -10 9 -10 9 -2 0 6 9 10 20 8 11 -2 19 1 17 7 -1 6 9 12 23 14 14 2 32 7
40 11 8 3 21 5 28 4 6 -1 12 4 12 10 0 7 3 9 7 6 3 -4 13 -1 21 6 13 10 14 9
7 -3 -5 -9 0 -8 13 4 17 14 22 16 22 5 1 -10 4 -9 14 4 15 19 31 23 20 5 -6
-10 -5 -10 8 -1 8 7 18 10 21 6 4 -3 7 -1 7 6 0 7 4 9 10 6 5 -3 18 -2 27 4
10 5 32 10 48 12 17 2 35 6 40 10 6 4 29 6 51 6 29 -2 40 2 37 10 -3 8 8 11
36 10 23 -2 41 1 41 5 0 4 12 6 28 4 15 -1 32 1 37 5 6 4 30 8 55 10 25 2 48
8 52 14 5 6 8 4 8 -5 0 -13 1 -13 10 0 7 11 10 11 10 2 0 -7 5 -10 10 -7 6 4
8 9 6 13 -2 4 26 7 62 6 37 0 73 4 81 10 10 8 15 8 19 -2 3 -10 7 -10 18 -1
11 9 14 9 14 0 0 -8 6 -9 18 -3 27 14 250 22 295 10 18 -4 27 -3 28 5 0 7 4 3
9 -8 8 -18 9 -18 9 -2 1 10 6 15 11 12 16 -10 12 12 -6 29 -8 9 -12 16 -7 16
4 0 1 6 -7 13 -8 7 -22 26 -30 42 -8 17 -19 35 -25 42 -5 7 -15 18 -21 25 -6
8 -8 20 -6 27 3 8 1 11 -4 8 -5 -2 -15 1 -22 9 -7 8 -9 14 -5 14 4 0 -1 7 -11
15 -15 11 -16 15 -5 16 8 0 4 4 -8 9 -13 5 -23 16 -23 24 0 8 -11 23 -25 34
-13 11 -21 22 -18 26 3 3 1 6 -5 6 -13 0 -68 53 -63 60 2 3 -8 11 -21 17 -14
7 -38 29 -52 48 -15 20 -31 33 -36 30 -5 -3 -17 3 -27 14 -9 11 -20 18 -25 15
-4 -3 -8 0 -8 5 0 6 -6 11 -14 11 -8 0 -18 5 -22 12 -5 7 -3 8 6 3 8 -5 11 -4
6 3 -4 6 -13 9 -21 5 -8 -3 -15 -1 -15 5 0 9 -37 25 -52 23 -5 -1 -8 4 -8 11
0 6 -3 8 -7 5 -3 -4 -12 1 -20 11 -9 10 -11 11 -7 2 7 -13 5 -13 -9 -1 -9 7
-17 10 -17 5 0 -4 -5 -3 -12 4 -7 7 -20 12 -30 12 -10 0 -18 3 -18 8 0 4 -12
8 -26 9 -15 0 -30 7 -35 15 -7 10 -9 10 -9 0 0 -9 -5 -10 -17 -4 -10 5 -24 7
-32 4 -9 -3 -11 0 -6 8 5 9 4 11 -4 6 -6 -4 -19 -2 -27 5 -12 10 -13 9 -8 -5
5 -12 2 -15 -10 -10 -9 3 -13 11 -10 16 4 6 -3 5 -15 -1 -16 -9 -21 -9 -21 1
0 9 -3 9 -10 -2 -5 -8 -10 -10 -10 -5 0 11 -146 13 -156 2 -4 -4 -14 -1 -22 6
-13 10 -14 9 -7 -2 6 -11 3 -13 -13 -9 -13 4 -22 1 -22 -5 0 -7 -5 -5 -10 3
-5 8 -10 10 -10 3 0 -6 -8 -10 -17 -8 -10 1 -24 -3 -32 -9 -11 -8 -13 -8 -7 1
5 9 2 11 -8 7 -9 -3 -14 -9 -12 -13 3 -4 -7 -8 -22 -9 -89 -6 -91 -6 -79 -21
10 -12 9 -13 -7 -4 -15 8 -25 7 -42 -4 -13 -8 -27 -12 -33 -9 -5 3 -12 -1 -15
-10 -3 -8 -11 -12 -16 -9 -6 4 -18 1 -27 -7 -9 -7 -18 -12 -20 -10 -9 6 -24 1
-19 -7 4 -5 -3 -7 -14 -4 -12 3 -20 0 -20 -6 0 -7 -4 -10 -9 -6 -5 3 -13 0
-16 -6 -4 -5 -13 -8 -21 -5 -8 3 -13 2 -11 -2 1 -4 -2 -8 -6 -9 -4 -1 -19 -9
-33 -17 -13 -9 -24 -13 -24 -9 0 4 -7 -2 -15 -13 -11 -14 -14 -15 -15 -4 0 10
-5 7 -16 -8 -8 -12 -20 -20 -25 -17 -5 4 -21 -7 -36 -22 -14 -15 -22 -21 -18
-13 7 12 6 13 -7 3 -8 -7 -18 -10 -21 -6 -4 3 -7 -2 -7 -12 0 -10 -3 -15 -6
-12 -10 10 -45 -13 -39 -24 4 -5 3 -9 -2 -8 -14 4 -63 -20 -63 -30 0 -6 -7 -8
-15 -4 -10 3 -15 0 -13 -8 2 -8 -3 -13 -9 -11 -7 1 -13 -3 -13 -10 0 -6 -3 -8
-6 -5 -4 4 -15 -3 -25 -15 -11 -11 -19 -18 -19 -14 0 7 -17 -5 -58 -44 -15
-13 -29 -24 -32 -25 -3 0 -4 -4 -2 -8 1 -5 -1 -6 -6 -3 -5 3 -24 -9 -43 -27
-19 -17 -36 -32 -39 -32 -13 0 -59 -43 -53 -49 3 -3 1 -6 -6 -6 -11 0 -62 -42
-103 -84 -10 -11 -18 -16 -18 -10 -1 5 -7 -2 -15 -16 -8 -14 -14 -21 -15 -16
0 12 -40 -34 -40 -47 0 -6 -3 -8 -6 -4 -4 3 -28 -17 -55 -45 -54 -57 -93 -76
-64 -31 10 15 12 22 4 18 -8 -5 -10 -4 -5 3 8 14 18 50 19 75 1 9 5 17 9 17 4
0 7 3 7 8 -4 21 2 43 10 38 4 -3 6 6 3 21 -4 19 -2 24 8 18 9 -5 11 -4 6 4 -4
6 0 23 9 38 9 14 12 22 5 18 -7 -4 -4 4 5 19 10 14 14 26 10 26 -3 0 1 7 10
16 9 9 14 23 11 31 -4 9 -2 11 6 7 8 -5 9 -2 5 10 -4 10 -3 15 3 11 6 -3 10 1
10 9 0 9 5 16 11 16 5 0 7 5 4 10 -3 6 -1 10 5 10 6 0 8 5 5 10 -3 6 -1 10 5
10 6 0 9 4 6 9 -3 5 1 11 9 15 8 3 15 11 15 18 0 8 13 28 29 45 16 18 26 34
23 37 -3 3 1 6 8 6 7 0 10 3 7 6 -3 4 7 19 23 34 17 16 30 33 30 40 0 6 4 9 9
5 5 -3 12 4 16 14 3 11 15 23 26 26 10 4 17 11 14 16 -4 5 1 9 10 9 9 0 13 5
10 10 -3 6 -2 10 4 10 6 0 24 13 40 29 16 16 32 27 35 24 2 -3 10 5 16 17 6
12 14 19 17 16 3 -2 16 7 29 21 13 14 24 23 24 19 0 -4 7 0 16 8 8 9 20 13 26
10 7 -4 8 -2 4 4 -6 11 5 16 20 10 3 -2 10 5 15 15 6 9 14 17 20 17 5 0 23 10
39 21 16 12 35 19 44 16 10 -4 13 -1 9 9 -5 12 13 19 40 15 4 0 7 3 7 7 0 13
50 33 62 26 6 -4 8 -3 5 3 -3 5 9 16 28 25 21 9 32 11 29 4 -3 -6 1 -3 9 6 8
10 17 15 20 11 4 -3 13 0 21 6 8 7 19 10 25 7 5 -3 12 2 15 11 6 15 8 15 16 3
8 -13 10 -12 10 2 0 10 5 15 13 12 7 -2 29 2 48 10 34 14 41 16 60 16 5 0 8 4
5 8 -3 4 8 7 25 6 16 -1 29 2 29 7 0 6 8 5 20 -1 15 -8 18 -8 14 3 -4 10 2 14
20 12 14 -2 28 0 31 5 2 4 16 5 30 2 14 -2 25 0 25 6 0 5 18 9 39 8 24 -2 38
2 34 8 -4 5 1 7 11 3 10 -4 23 -4 29 0 7 4 35 8 62 8 28 1 56 4 63 9 6 4 12 4
12 -1 0 -4 5 -1 10 7 5 8 10 10 10 4 0 -6 7 -11 15 -11 11 0 12 4 4 14 -6 7
-18 13 -26 13 -8 0 -11 5 -8 10 3 6 -1 10 -10 10 -10 0 -13 5 -9 12 4 6 3 8
-4 4 -6 -3 -17 0 -25 8 -8 8 -17 12 -21 9 -3 -3 -8 2 -12 11 -3 9 -13 16 -21
16 -8 0 -11 5 -7 11 4 8 0 9 -15 4 -16 -5 -20 -3 -15 9 4 11 0 16 -15 16 -12
0 -21 4 -21 10 0 5 -6 9 -12 7 -7 -1 -12 5 -10 13 2 8 0 12 -4 8 -4 -4 -13 -3
-21 3 -7 6 -13 8 -13 5 0 -4 -7 -1 -15 6 -36 33 -46 39 -55 33 -6 -3 -10 2
-10 12 0 15 -2 16 -10 3 -9 -13 -14 -7 -11 13 0 4 -5 7 -13 7 -7 0 -19 7 -26
15 -7 8 -16 12 -21 9 -5 -2 -19 2 -32 11 -13 8 -27 12 -30 8 -4 -3 -7 2 -8 13
0 11 -3 14 -6 6 -4 -10 -9 -9 -20 5 -8 10 -11 11 -7 3 6 -12 4 -12 -12 1 -10
9 -25 14 -33 11 -8 -3 -11 0 -7 7 6 10 -19 16 -46 12 -5 0 -8 3 -8 9 0 5 -8
10 -18 10 -10 0 -22 3 -26 7 -6 7 -29 13 -53 15 -7 1 -13 6 -13 12 0 6 -4 4
-10 -4 -8 -12 -10 -12 -16 4 -5 14 -9 15 -15 4 -6 -8 -9 -9 -9 -1 0 6 -13 10
-29 9 -17 -1 -27 2 -24 7 3 5 -4 6 -17 2 -13 -4 -20 -3 -17 2 3 5 -5 9 -19 9
-13 0 -24 -5 -24 -10 0 -6 -5 -4 -10 4 -5 8 -10 12 -10 8 0 -4 -14 -3 -30 2
-17 5 -30 5 -30 1 0 -5 -15 -6 -32 -4 -50 7 -83 4 -107 -11 -10 -6 -12 -5 -7
2 4 7 2 12 -3 12 -6 0 -11 -4 -11 -9 0 -4 -11 -7 -25 -6 -14 2 -25 0 -25 -5 0
-5 -11 -7 -25 -5 -14 1 -25 -2 -25 -7 0 -5 -4 -6 -10 -3 -5 3 -10 1 -10 -5 0
-6 -4 -8 -10 -5 -5 3 -10 1 -10 -4 0 -6 -5 -11 -11 -11 -5 0 -7 6 -3 13 4 6
-2 3 -14 -7 -12 -11 -22 -15 -22 -10 0 5 -7 1 -15 -10 -7 -10 -18 -15 -23 -12
-6 3 -13 -1 -16 -10 -3 -8 -10 -12 -16 -9 -5 3 -10 -1 -10 -9 0 -9 -3 -15 -7
-15 -22 4 -43 -2 -38 -10 3 -5 -3 -12 -14 -16 -11 -3 -22 -12 -25 -20 -3 -8
-10 -15 -16 -15 -15 0 -41 -26 -33 -34 4 -3 -1 -6 -9 -6 -9 0 -19 -7 -22 -16
-3 -8 -11 -12 -17 -8 -7 4 -9 3 -5 -4 3 -6 -4 -18 -16 -26 -12 -9 -19 -18 -16
-22 4 -3 -9 -21 -27 -40 -19 -19 -31 -34 -27 -34 4 0 2 -4 -3 -8 -13 -9 -65
-89 -65 -100 0 -4 -9 -18 -21 -30 -11 -12 -17 -27 -14 -32 3 -6 1 -10 -5 -10
-6 0 -9 -4 -6 -9 4 -5 3 -11 -1 -13 -11 -4 -53 -87 -53 -104 0 -8 -4 -14 -10
-14 -5 0 -10 -8 -10 -19 0 -10 -7 -24 -15 -31 -11 -9 -12 -17 -4 -31 5 -11 6
-18 2 -17 -4 2 -9 -1 -11 -7 -2 -5 -11 -18 -19 -27 -12 -14 -13 -18 -3 -18 10
0 9 -4 -3 -17 -8 -10 -16 -22 -16 -28 -1 -5 -8 -31 -17 -57 -8 -26 -12 -53 -8
-59 4 -7 3 -9 -4 -6 -6 5 -13 -8 -17 -33 -4 -22 -10 -40 -15 -40 -5 0 -7 -11
-5 -25 1 -14 -2 -25 -7 -25 -5 0 -8 -10 -6 -22 2 -13 -2 -22 -7 -21 -6 1 -12
-10 -13 -25 -4 -58 -7 -72 -13 -72 -4 0 -6 -13 -5 -29 1 -17 -2 -28 -6 -25 -7
4 -10 -18 -7 -42 0 -4 -5 -11 -13 -15 -10 -7 -10 -9 2 -9 11 0 12 -2 3 -8 -7
-4 -15 -26 -19 -47 -3 -22 -9 -41 -13 -43 -4 -1 -6 -16 -5 -32 1 -17 -2 -33
-7 -36 -5 -3 -7 -10 -4 -15 4 -5 2 -9 -3 -9 -5 0 -8 -13 -7 -30 1 -16 -1 -27
-6 -24 -5 3 -9 -5 -10 -18 0 -13 -3 -32 -5 -43 -3 -11 -6 -26 -6 -32 -1 -7 -5
-13 -10 -13 -5 0 -6 -4 -3 -10 3 -5 2 -10 -3 -10 -5 0 -8 -11 -7 -25 2 -14 -1
-25 -6 -25 -4 0 -6 -7 -3 -15 4 -8 1 -15 -5 -15 -6 0 -11 -10 -11 -23 0 -13
-3 -27 -7 -31 -5 -4 -8 -11 -9 -14 -3 -26 -37 -82 -49 -82 -8 0 -15 -5 -15
-11 0 -7 -13 1 -29 17 -15 16 -38 37 -50 47 -12 10 -19 22 -16 27 3 6 -1 10
-9 10 -8 0 -18 9 -21 20 -3 11 -13 20 -20 20 -8 0 -12 6 -9 13 2 7 -7 24 -21
37 -14 13 -25 30 -25 37 0 8 -5 11 -12 7 -7 -5 -8 -3 -4 5 5 7 0 19 -10 27
-11 9 -13 13 -4 9 8 -4 4 3 -9 14 -13 12 -20 21 -16 21 4 0 2 7 -5 15 -7 8 -9
15 -4 15 4 0 -1 6 -12 14 -10 8 -16 18 -12 22 5 4 -1 13 -12 21 -11 8 -20 21
-20 29 0 8 -7 26 -16 39 -9 14 -12 25 -8 25 5 0 5 4 -1 8 -17 12 -51 56 -37
48 18 -11 15 8 -7 36 -11 13 -23 37 -26 51 -4 15 -11 27 -16 27 -5 0 -9 9 -9
20 0 11 -5 20 -12 20 -6 0 -8 3 -5 6 3 4 1 16 -5 28 -7 11 -13 27 -14 34 -1 7
-10 25 -20 40 -10 15 -17 31 -16 36 2 4 -2 14 -9 22 -6 7 -8 18 -4 24 3 5 2
10 -3 10 -13 0 -34 59 -25 73 3 6 1 7 -5 3 -7 -4 -13 7 -18 29 -3 19 -10 35
-16 35 -5 0 -6 5 -3 10 3 6 1 10 -5 10 -6 0 -9 4 -5 9 3 5 1 12 -5 16 -6 4 -8
11 -4 16 3 5 0 16 -6 24 -7 8 -9 15 -4 15 5 0 4 4 -3 8 -6 4 -13 16 -15 27 -1
11 -5 22 -8 25 -7 7 -32 73 -33 88 0 6 -4 12 -9 12 -4 0 -8 5 -8 11 0 5 6 7
13 4 6 -4 5 -1 -4 7 -9 7 -14 19 -12 26 3 6 0 12 -6 12 -6 0 -11 11 -11 24 0
14 -4 28 -10 31 -5 3 -10 17 -10 31 0 13 -4 24 -10 24 -5 0 -7 7 -4 15 4 9 0
15 -7 15 -11 0 -11 3 1 10 13 9 13 10 0 10 -10 0 -16 11 -16 31 -1 17 -7 35
-14 39 -6 4 -10 16 -8 26 2 10 -2 18 -8 17 -6 -1 -10 13 -9 32 0 21 -5 37 -13
40 -8 3 -11 12 -8 20 3 8 1 15 -5 15 -6 0 -7 5 -4 10 4 6 1 17 -5 25 -7 8 -10
24 -7 35 3 10 0 18 -5 17 -10 -2 -17 17 -21 60 -1 13 -5 23 -9 23 -5 0 -8 9
-8 19 0 11 -4 23 -10 26 -5 3 -10 22 -10 41 0 21 -4 33 -10 29 -5 -3 -10 0
-10 7 0 9 -3 9 -10 -2 -7 -11 -10 -11 -10 -2 0 7 -4 11 -9 8 -5 -4 -12 0 -14
6 -4 10 -6 10 -6 1 -1 -7 -8 -10 -18 -6 -11 4 -14 3 -9 -5 10 -17 0 -15 -18 4
-15 14 -16 14 -16 -3 0 -15 -2 -16 -10 -3 -9 13 -10 13 -10 0 0 -13 -1 -13
-10 0 -5 8 -10 11 -10 5 0 -5 -5 -3 -10 5 -6 9 -10 11 -10 3 0 -7 -7 -10 -17
-6 -11 4 -14 3 -9 -5 10 -17 0 -15 -18 4 -15 14 -16 14 -16 -3 0 -15 -2 -16
-10 -3 -9 13 -10 13 -10 0 0 -13 -1 -13 -10 0 -5 8 -10 11 -10 5 0 -5 -5 -3
-10 5 -6 9 -10 11 -10 3 0 -7 -7 -10 -17 -6 -11 4 -14 3 -9 -5 10 -17 0 -15
-18 4 -15 14 -16 14 -16 -3 0 -15 -2 -16 -10 -3 -9 13 -10 13 -10 0 0 -13 -1
-13 -10 0 -5 8 -10 11 -10 5 0 -5 -5 -3 -10 5 -6 9 -10 11 -10 3 0 -7 -7 -10
-17 -6 -11 4 -14 3 -9 -5 10 -17 0 -15 -18 4 -15 14 -16 14 -16 -3 0 -15 -2
-16 -10 -3 -9 13 -10 13 -10 0 0 -13 -1 -13 -10 0 -5 8 -10 11 -10 5 0 -5 -5
-3 -10 5 -6 9 -10 11 -10 3z m2688 -167 c35 9 88 10 115 3 18 -5 27 -4 27 4 0
6 7 2 15 -9 14 -18 15 -18 8 0 -6 18 -5 18 23 0 21 -14 26 -15 19 -4 -8 13 -7
13 8 1 14 -11 17 -11 18 0 0 10 2 11 6 2 2 -7 13 -13 24 -13 10 0 19 -6 19
-12 0 -9 4 -8 10 2 6 10 10 11 10 3 0 -7 3 -12 8 -12 21 4 53 -2 49 -8 -3 -5
9 -9 26 -10 17 -1 34 -8 38 -14 4 -6 12 -8 18 -5 6 4 14 0 17 -9 4 -10 14 -15
26 -12 11 3 27 -3 38 -16 14 -15 20 -17 20 -6 1 11 4 10 14 -3 7 -10 20 -18
29 -18 8 0 17 -5 19 -10 2 -6 13 -12 25 -13 13 0 25 -7 27 -13 3 -7 15 -18 27
-24 17 -10 20 -9 13 2 -4 7 2 4 14 -6 25 -22 30 -51 7 -43 -8 4 -17 2 -20 -2
-3 -5 -14 -7 -25 -4 -15 4 -20 0 -20 -13 0 -11 -4 -15 -8 -9 -9 13 -32 17 -32
6 0 -9 -71 -27 -97 -24 -6 0 -9 -6 -6 -13 3 -10 0 -12 -10 -8 -8 3 -31 -2 -52
-10 -20 -9 -41 -13 -46 -10 -5 3 -9 0 -9 -5 0 -6 -7 -11 -15 -11 -8 0 -15 -4
-15 -9 0 -6 -9 -8 -20 -6 -11 2 -20 0 -20 -6 0 -5 -9 -9 -19 -9 -11 0 -21 -5
-23 -10 -2 -6 -13 -12 -26 -13 -12 0 -22 -5 -22 -10 0 -4 -4 -5 -10 -2 -5 3
-10 -2 -10 -12 0 -15 -2 -16 -10 -3 -7 12 -10 12 -10 1 0 -7 -6 -11 -15 -7 -8
3 -14 2 -12 -2 1 -4 -1 -7 -5 -7 -4 0 -14 -9 -23 -20 -9 -11 -13 -13 -9 -6 5
9 -5 6 -23 -7 -17 -12 -36 -22 -42 -22 -6 0 -11 -4 -11 -10 0 -5 -7 -10 -15
-10 -8 0 -15 -5 -15 -12 0 -6 -3 -8 -7 -5 -3 4 -12 -1 -20 -11 -9 -11 -12 -11
-7 -2 4 8 -3 5 -15 -7 -12 -13 -27 -23 -33 -23 -6 0 -9 3 -5 6 3 4 -1 13 -9
21 -8 8 -11 19 -8 25 4 6 2 8 -3 5 -10 -6 -40 50 -35 66 1 4 -5 7 -13 7 -8 0
-15 3 -14 8 2 15 -14 52 -22 52 -5 0 -9 9 -9 20 0 10 -6 23 -14 27 -8 4 -14
10 -14 13 3 16 -15 49 -23 45 -5 -4 -9 3 -9 14 0 11 -4 23 -10 26 -5 3 -10 15
-10 26 0 10 -7 19 -15 19 -8 0 -14 3 -13 8 2 11 -14 46 -25 54 -13 8 16 38 38
38 11 0 15 5 12 14 -4 10 -1 13 9 9 7 -3 14 0 14 7 0 6 4 9 9 5 5 -3 12 -1 16
5 4 6 11 8 16 5 5 -4 9 -1 9 6 0 7 3 9 7 6 3 -4 16 -1 27 6 12 8 29 13 39 11
9 -1 17 2 17 8 0 5 9 6 21 3 15 -5 19 -4 15 4 -9 14 16 10 26 -4 4 -6 8 -1 9
10 0 11 3 15 5 9 3 -7 13 -10 22 -8z m957 -816 c-9 -14 8 -12 24 3 11 10 13
10 7 0 -4 -7 -2 -13 3 -13 6 0 11 3 11 8 0 4 24 7 52 6 40 0 52 -4 50 -15 -1
-9 3 -8 12 4 9 12 16 14 21 7 3 -5 11 -8 16 -5 5 4 9 2 9 -4 0 -6 11 -6 30 -1
17 5 30 5 30 1 0 -4 6 -8 13 -8 43 -3 67 -8 67 -15 0 -4 11 -8 25 -8 22 0 60
-15 75 -30 3 -3 14 -7 25 -8 11 -2 22 -7 25 -12 3 -4 15 -10 27 -14 13 -4 29
-14 37 -21 8 -8 19 -16 26 -17 6 -2 25 -15 42 -30 17 -16 37 -28 46 -28 8 0
13 -3 9 -6 -8 -8 12 -28 36 -37 10 -4 16 -11 13 -16 -3 -5 3 -11 14 -14 11 -3
20 -13 20 -22 0 -9 5 -13 10 -10 6 3 10 3 10 -2 0 -4 14 -24 30 -43 16 -19 34
-40 39 -46 6 -7 7 -15 3 -20 -4 -4 -2 -4 4 -1 7 4 17 0 24 -8 10 -12 9 -15 -4
-15 -9 0 -16 -4 -16 -8 0 -10 -30 -9 -47 1 -6 4 -14 0 -17 -9 -4 -11 -11 -13
-19 -7 -6 4 -19 8 -27 7 -8 -1 -30 -2 -48 -3 -24 -1 -31 -5 -26 -13 5 -9 2 -8
-10 1 -12 10 -20 11 -28 3 -8 -8 -15 -7 -25 6 -8 9 -12 11 -8 5 7 -14 1 -15
-76 -17 -26 -1 -55 -8 -65 -16 -14 -12 -16 -12 -9 -1 6 11 4 13 -11 6 -10 -4
-31 -8 -46 -8 -16 0 -28 -5 -28 -10 0 -5 -7 -4 -15 3 -12 10 -16 9 -21 -5 -5
-13 -9 -14 -15 -3 -7 10 -9 10 -9 -2 0 -13 -1 -13 -10 0 -5 8 -10 10 -10 4 0
-7 -13 -10 -30 -9 -17 1 -33 -2 -37 -8 -4 -6 -1 -7 7 -2 7 5 11 4 8 -1 -4 -5
-29 -9 -56 -9 -28 0 -48 -4 -44 -9 3 -5 -2 -7 -10 -3 -9 3 -19 3 -23 -1 -4 -4
-11 -8 -16 -8 -5 -1 -10 -2 -11 -4 -8 -6 -58 -4 -59 2 -1 4 -2 12 -3 17 0 5
-4 13 -8 17 -5 4 -8 20 -8 36 0 15 -4 28 -9 28 -5 0 -8 12 -8 26 0 15 -5 29
-10 33 -6 3 -10 20 -9 38 1 17 -3 31 -8 30 -5 -1 -10 13 -12 32 -1 19 -7 37
-11 40 -5 3 -9 17 -8 31 0 14 -6 31 -13 39 -8 8 -12 21 -9 30 2 9 -2 22 -10
30 -12 10 -12 16 -1 29 10 12 10 14 1 8 -12 -6 -19 18 -14 47 0 4 -4 7 -10 7
-5 0 -7 5 -4 11 4 6 13 8 21 5 8 -3 14 -2 14 3 0 4 16 7 35 6 20 -1 40 5 46
12 13 15 23 18 14 3z m279 -1605 c16 -14 33 -25 38 -25 15 0 68 -57 60 -64 -4
-4 -2 -7 3 -6 21 5 36 0 30 -10 -3 -5 -2 -10 3 -10 14 0 52 -36 52 -49 0 -6 7
-11 16 -11 8 0 12 -4 9 -10 -3 -5 3 -17 15 -27 11 -10 20 -23 20 -29 0 -7 7
-15 16 -18 9 -4 14 -9 11 -12 -3 -4 3 -15 13 -27 11 -11 17 -24 14 -29 -3 -4
2 -8 11 -8 9 0 14 -4 10 -9 -3 -5 1 -15 8 -23 8 -7 12 -18 10 -24 -2 -6 3 -17
12 -24 8 -7 15 -19 15 -28 0 -8 8 -24 18 -35 12 -15 13 -18 2 -12 -11 6 -10 3
3 -12 9 -11 15 -22 12 -25 -3 -3 1 -18 10 -34 8 -16 15 -37 15 -46 0 -10 4
-18 9 -18 5 0 8 -13 7 -29 -1 -17 2 -27 8 -24 5 4 7 -3 4 -15 -4 -12 -2 -22 4
-22 5 0 6 -4 3 -10 -3 -5 -1 -10 4 -10 6 0 11 -5 11 -11 0 -5 -5 -7 -11 -3 -8
5 -8 1 0 -13 6 -11 7 -23 4 -27 -3 -3 -1 -6 6 -6 7 0 11 -6 8 -14 -3 -7 0 -19
6 -26 9 -10 9 -11 -3 -5 -12 7 -13 6 -4 -6 6 -8 10 -22 9 -31 -2 -10 2 -18 8
-18 18 0 -7 -20 -31 -25 -12 -2 -21 1 -19 7 1 6 -11 13 -28 15 -16 2 -31 8
-33 14 -2 5 -12 9 -23 9 -10 0 -19 6 -20 13 0 8 -2 8 -6 -2 -4 -9 -8 -10 -12
-2 -4 6 -18 12 -31 15 -14 2 -24 8 -23 13 1 5 -11 9 -27 8 -16 -1 -27 2 -24 7
5 7 -19 13 -40 9 -5 -1 -17 6 -27 15 -11 9 -19 13 -19 8 0 -5 -5 -2 -10 6 -9
13 -10 13 -10 0 -1 -12 -3 -11 -11 3 -6 9 -15 14 -21 11 -6 -4 -14 -1 -18 6
-4 7 -19 13 -34 13 -14 0 -26 4 -26 9 0 5 -4 7 -9 3 -5 -3 -12 -1 -16 4 -3 5
-15 8 -26 6 -11 -2 -22 2 -26 10 -3 8 -9 13 -13 10 -4 -3 -20 2 -36 10 -15 7
-31 12 -36 9 -4 -3 -8 0 -8 6 0 6 -4 9 -9 5 -5 -3 -12 -1 -15 4 -4 5 -17 8
-31 7 -14 -2 -22 1 -18 7 4 6 -2 8 -15 5 -13 -4 -20 -2 -19 6 1 6 -6 10 -15 8
-20 -3 -17 30 4 56 11 13 11 15 -2 8 -13 -6 -13 -5 0 6 9 7 14 21 12 31 -2 9
2 17 8 17 6 0 8 5 5 10 -3 6 -2 10 4 10 5 0 8 9 6 20 -2 11 0 18 6 15 5 -4 9
5 9 20 0 14 7 28 15 31 8 4 12 10 9 15 -3 5 -2 15 3 22 8 12 9 17 12 38 0 5 5
8 9 5 4 -2 8 3 9 12 3 45 8 60 17 55 5 -4 7 3 4 15 -4 12 -2 20 3 16 8 -5 11
3 8 22 0 4 5 11 13 15 11 7 10 9 -1 9 -12 0 -12 2 1 13 14 10 30 55 27 73 0 4
4 10 10 13 6 4 12 18 15 31 2 14 8 24 13 23 6 -1 9 9 7 22 -1 17 3 25 12 25 9
0 12 5 9 10 -11 18 10 10 39 -15z m-2949 -1725 c-8 -12 5 -13 25 -1 8 6 19 7
25 3 18 -11 35 -11 35 1 0 7 4 6 10 -3 7 -11 12 -12 21 -3 14 14 39 6 39 -13
0 -8 6 -14 13 -14 9 0 9 -2 -1 -9 -11 -7 -11 -9 2 -14 9 -4 13 -13 10 -21 -3
-8 -1 -17 5 -21 6 -3 11 -17 11 -31 0 -13 5 -24 10 -24 6 0 10 -6 9 -12 -3
-27 1 -39 13 -32 8 5 9 0 6 -14 -4 -12 -2 -22 4 -22 6 0 8 -7 4 -15 -3 -8 -1
-15 5 -15 6 0 8 -7 5 -16 -3 -8 -2 -13 3 -10 10 7 33 -49 24 -58 -4 -3 -1 -6
5 -6 7 0 12 -7 12 -15 0 -8 5 -15 11 -15 5 0 8 -4 4 -9 -3 -5 1 -16 9 -24 8
-8 13 -17 10 -20 -4 -3 7 -23 22 -43 16 -21 23 -34 16 -30 -11 7 -12 4 -3 -13
7 -11 14 -21 17 -21 3 0 2 5 -2 12 -4 7 -3 8 4 4 6 -4 9 -13 6 -21 -3 -8 3
-27 15 -43 11 -16 18 -32 14 -36 -3 -3 0 -6 9 -6 8 0 15 -7 15 -15 0 -8 -4
-12 -9 -9 -5 3 -15 0 -23 -6 -8 -7 -15 -8 -15 -3 0 6 -10 10 -22 10 -60 1 -79
4 -74 11 3 5 -1 9 -9 9 -8 0 -12 -5 -8 -10 3 -5 -4 -4 -14 2 -11 6 -23 7 -27
4 -3 -3 -6 -1 -6 6 0 9 -5 9 -20 1 -15 -8 -20 -8 -18 1 2 7 -12 14 -32 16 -19
3 -36 9 -38 14 -2 5 -15 9 -28 9 -13 0 -24 5 -24 12 0 6 -3 9 -6 5 -4 -3 -23
2 -44 13 -21 11 -40 16 -44 13 -3 -4 -6 -1 -6 5 0 7 -10 12 -22 12 -19 0 -20
2 -8 10 12 8 11 10 -7 10 -13 0 -23 5 -23 11 0 5 -5 7 -10 4 -6 -3 -13 1 -16
9 -3 9 -12 16 -20 16 -8 0 -14 5 -14 11 0 5 -4 8 -9 5 -5 -3 -11 1 -15 9 -3 8
-12 15 -21 15 -8 0 -15 6 -15 13 0 6 -14 21 -30 32 -16 11 -30 23 -30 28 0 4
-13 21 -30 38 -16 18 -28 35 -25 38 6 10 -32 41 -40 33 -4 -4 -6 -2 -5 3 5 23
-1 56 -8 51 -9 -6 -26 23 -37 62 -4 12 -12 22 -18 22 -7 0 -6 4 3 10 13 8 12
10 -4 10 -13 0 -17 5 -13 20 3 11 0 20 -5 20 -6 0 -3 9 7 20 10 11 23 16 29
13 17 -11 37 -12 30 -2 -3 5 -10 6 -16 3 -6 -4 -8 -2 -5 4 4 5 16 8 27 5 11
-3 17 -9 15 -14 -3 -4 5 -6 17 -3 13 3 33 6 46 7 12 1 22 6 22 12 0 6 3 7 8 0
9 -12 82 -13 82 -1 0 5 7 3 15 -4 8 -7 15 -8 15 -3 0 5 32 8 70 7 39 -1 73 2
76 7 3 5 7 9 10 9 3 0 2 -4 -1 -10z m-435 -14 c0 -3 -4 -8 -10 -11 -5 -3 -10
-1 -10 4 0 6 5 11 10 11 6 0 10 -2 10 -4z"/>
</g>
</svg>
